<svg width="22" height="24" viewBox="0 0 22 24" fill="none" xmlns="http://www.w3.org/2000/svg">
<path d="M1 14H5.41C5.79 14 6.13 14.21 6.3 14.55L7.47 16.89C7.63558 17.2232 7.89083 17.5036 8.20705 17.6997C8.52326 17.8958 8.88792 17.9998 9.26 18H12.79C13.1621 17.9998 13.5267 17.8958 13.843 17.6997C14.1592 17.5036 14.4144 17.2232 14.58 16.89L15.75 14.55C15.8331 14.3851 15.9602 14.2464 16.1173 14.1493C16.2744 14.0522 16.4553 14.0006 16.64 14H21" stroke="#EECE79" stroke-width="1.5" stroke-linecap="round" stroke-linejoin="round"/>
<path d="M6.02002 6.13C2.48002 6.65 1.02002 8.73 1.02002 13V16C1.02002 21 3.02002 23 8.02002 23H14.02C19.02 23 21.02 21 21.02 16V13C21.02 8.73 19.56 6.65 16.02 6.13" stroke="#EECE79" stroke-width="1.5" stroke-linecap="round" stroke-linejoin="round"/>
<path d="M11.02 13V1M11.02 1L8.02002 4.42857M11.02 1L14.02 4.42857" stroke="#E28160" stroke-width="1.5" stroke-linecap="round" stroke-linejoin="round"/>
</svg>
