<svg width="22" height="24" viewBox="0 0 22 24" fill="none" xmlns="http://www.w3.org/2000/svg">
<path d="M17.6667 19.7222H16.8222C15.9333 19.7222 15.0889 20.0667 14.4667 20.6889L12.5667 22.5667C11.7 23.4222 10.2889 23.4222 9.42222 22.5667L7.52222 20.6889C6.9 20.0667 6.04444 19.7222 5.16667 19.7222H4.33333C2.48889 19.7222 1 18.2444 1 16.4222V4.3C1 2.47778 2.48889 1 4.33333 1H17.6667C19.5111 1 21 2.47778 21 4.3V16.4222C21 18.2333 19.5111 19.7222 17.6667 19.7222Z" stroke="#EECE79" stroke-width="1.5" stroke-miterlimit="10" stroke-linecap="round" stroke-linejoin="round"/>
<path d="M11.3111 15.3889C11.1444 15.4444 10.8667 15.4444 10.6889 15.3889C9.24444 14.8889 6 12.8333 6 9.33332C6 7.78888 7.24444 6.54443 8.77778 6.54443C9.68889 6.54443 10.4889 6.97777 11 7.65554C11.5111 6.97777 12.3111 6.54443 13.2222 6.54443C14.7556 6.54443 16 7.78888 16 9.33332C15.9889 12.8333 12.7556 14.8889 11.3111 15.3889Z" fill="#E28160" stroke="#EECE79" stroke-width="1.5" stroke-linecap="round" stroke-linejoin="round"/>
</svg>
