<svg width="22" height="22" viewBox="0 0 22 22" fill="none" xmlns="http://www.w3.org/2000/svg">
<path d="M11.12 11.78C11.0403 11.77 10.9597 11.77 10.88 11.78C10.032 11.7514 9.22821 11.3944 8.63856 10.7842C8.04891 10.174 7.71953 9.35852 7.72001 8.50999C7.72001 6.69999 9.18001 5.22999 11 5.22999C11.8594 5.22849 12.6851 5.5648 13.2988 6.16639C13.9126 6.76798 14.2654 7.58668 14.2811 8.44597C14.2969 9.30527 13.9743 10.1363 13.383 10.76C12.7917 11.3837 11.9789 11.75 11.12 11.78ZM17.74 18.38C15.9023 20.0691 13.496 21.0044 11 21C8.40001 21 6.04001 20.01 4.26001 18.38C4.36001 17.44 4.96001 16.52 6.03001 15.8C8.77001 13.98 13.25 13.98 15.97 15.8C17.04 16.52 17.64 17.44 17.74 18.38Z" fill="#EECE79" stroke="#FEF2CA" stroke-width="1.5" stroke-linecap="round" stroke-linejoin="round"/>
<path d="M11 21C16.523 21 21 16.523 21 11C21 5.477 16.523 1 11 1C5.477 1 1 5.477 1 11C1 16.523 5.477 21 11 21Z" stroke="#FEF2CA" stroke-width="1.5" stroke-linecap="round" stroke-linejoin="round"/>
</svg>
